<svg xmlns="http://www.w3.org/2000/svg" xmlns:xlink="http://www.w3.org/1999/xlink" viewBox="0 0 100 125" version="1.1" x="0px" y="0px"><title>tool-4 copy 3</title><desc>Created with Sketch.</desc><g stroke="none" stroke-width="1" fill="none" fill-rule="evenodd"><path d="M50,59.7644486 C44.380965,59.7644486 39.8102797,55.1937633 39.8102797,49.5747283 C39.8102797,43.9556933 44.380965,39.385008 50,39.385008 C55.619035,39.385008 60.1897203,43.9556933 60.1897203,49.5747283 C60.1897203,55.1937633 55.619035,59.7644486 50,59.7644486 L50,59.7644486 Z M50,33.4200027 C41.0912646,33.4200027 33.8452744,40.6659928 33.8452744,49.5747283 C33.8452744,58.4834637 41.0912646,65.7294539 50,65.7294539 C58.9087354,65.7294539 66.1547256,58.4834637 66.1547256,49.5747283 C66.1547256,40.6659928 58.9087354,33.4200027 50,33.4200027 L50,33.4200027 Z M50,71.1844512 C32.4673582,71.1844512 17.2342259,54.9581455 12.577048,49.4613932 C17.2342259,44.0063958 32.4300769,27.9650053 50,27.9650053 C67.5296593,27.9650053 82.7553354,44.0123608 87.422952,49.4658669 C82.7747216,54.9656018 67.5729056,71.1844512 50,71.1844512 L50,71.1844512 Z M93.6489263,47.6569791 C92.8570718,46.6101206 74.0016901,22 50,22 C25.9983099,22 7.14292815,46.6101206 6.3510737,47.6569791 L5,49.4449894 L6.34361744,51.2389647 C7.13398065,52.2977532 25.9893624,77.1494565 50,77.1494565 C74.0106376,77.1494565 92.8660194,52.2977532 93.6563826,51.2389647 L95,49.4449894 L93.6489263,47.6569791 Z" fill="#000000"/></g><text x="0" y="115" fill="#000000" font-size="5px" font-weight="bold" font-family="'Helvetica Neue', Helvetica, Arial-Unicode, Arial, Sans-serif">Created by Ben Iconator</text><text x="0" y="120" fill="#000000" font-size="5px" font-weight="bold" font-family="'Helvetica Neue', Helvetica, Arial-Unicode, Arial, Sans-serif">from the Noun Project</text></svg>