<svg xmlns="http://www.w3.org/2000/svg" xmlns:xlink="http://www.w3.org/1999/xlink" viewBox="0 0 100 125" version="1.1" x="0px" y="0px"><title>slice-1 copy 10</title><desc>Created with Sketch.</desc><g stroke="none" stroke-width="1" fill="none" fill-rule="evenodd"><path d="M20.5413158,28.9234211 L79.4557895,28.9234211 L79.4557895,20.885 L20.5413158,20.885 L20.5413158,28.9234211 Z M79.4557895,85.9976316 C79.4557895,88.3494737 77.5421053,90.2631579 75.1902632,90.2631579 L24.8068421,90.2631579 C22.455,90.2631579 20.5413158,88.3494737 20.5413158,85.9976316 L20.5413158,33.6602632 L79.4557895,33.6602632 L79.4557895,85.9976316 Z M39.465,10.9731579 C39.465,10.2910526 40.0215789,9.73684211 40.7036842,9.73684211 L59.2957895,9.73684211 C59.9778947,9.73684211 60.5344737,10.2910526 60.5344737,10.9731579 L60.5344737,16.1505263 L39.465,16.1505263 L39.465,10.9731579 Z M65.2713158,16.1505263 L65.2713158,10.9731579 C65.2713158,7.67868421 62.5902632,5 59.2957895,5 L40.7036842,5 C37.4092105,5 34.7281579,7.67868421 34.7281579,10.9731579 L34.7281579,16.1505263 L9,16.1505263 L9,20.8873684 L15.8044737,20.8873684 L15.8044737,85.9976316 C15.8044737,90.9618421 19.8426316,95 24.8068421,95 L75.1902632,95 C80.1544737,95 84.1926316,90.9618421 84.1926316,85.9976316 L84.1926316,20.8873684 L90.9971053,20.8873684 L90.9971053,16.1505263 L65.2713158,16.1505263 Z" fill="#000000"/></g><text x="0" y="115" fill="#000000" font-size="5px" font-weight="bold" font-family="'Helvetica Neue', Helvetica, Arial-Unicode, Arial, Sans-serif">Created by Ben Iconator</text><text x="0" y="120" fill="#000000" font-size="5px" font-weight="bold" font-family="'Helvetica Neue', Helvetica, Arial-Unicode, Arial, Sans-serif">from the Noun Project</text></svg>