<svg xmlns="http://www.w3.org/2000/svg" xmlns:xlink="http://www.w3.org/1999/xlink" viewBox="0 0 100 125" version="1.1" x="0px" y="0px"><title>magn_gls-20 copy</title><desc>Created with Sketch.</desc><g stroke="none" stroke-width="1" fill="none" fill-rule="evenodd"><path d="M82.38,45.927 L50,78.307 L17.62,45.927 C11.47,39.777 11.47,29.77 17.62,23.62 C20.599,20.64 24.56,19 28.774,19 C32.987,19 36.948,20.64 39.927,23.62 L50,33.692 L60.073,23.62 C63.052,20.64 67.013,19 71.226,19 C75.44,19 79.401,20.64 82.38,23.62 C88.53,29.77 88.53,39.777 82.38,45.927 M88.037,17.963 C83.395,13.321 77.311,11 71.226,11 C65.142,11 59.058,13.321 54.416,17.963 L50,22.379 L45.584,17.963 C40.942,13.321 34.858,11 28.774,11 C22.689,11 16.605,13.321 11.963,17.963 C2.679,27.247 2.679,42.3 11.963,51.584 L50,89.621 L88.037,51.584 C97.321,42.3 97.321,27.247 88.037,17.963" fill="#000000"/></g><text x="0" y="115" fill="#000000" font-size="5px" font-weight="bold" font-family="'Helvetica Neue', Helvetica, Arial-Unicode, Arial, Sans-serif">Created by Ben Iconator</text><text x="0" y="120" fill="#000000" font-size="5px" font-weight="bold" font-family="'Helvetica Neue', Helvetica, Arial-Unicode, Arial, Sans-serif">from the Noun Project</text></svg>